<svg width="63" height="63" viewBox="0 0 63 63" fill="none" xmlns="http://www.w3.org/2000/svg">
<path d="M47.25 57.75C50.1454 57.75 52.5 55.3954 52.5 52.5V10.5C52.5 7.60462 50.1454 5.25 47.25 5.25H21C18.1046 5.25 15.75 7.60462 15.75 10.5V52.5C15.75 55.3954 18.1046 57.75 21 57.75H47.25ZM34.125 44.625C34.8212 44.625 35.4889 44.9016 35.9812 45.3938C36.4734 45.8861 36.75 46.5538 36.75 47.25C36.75 47.9462 36.4734 48.6139 35.9812 49.1062C35.4889 49.5984 34.8212 49.875 34.125 49.875C33.4288 49.875 32.7611 49.5984 32.2688 49.1062C31.7766 48.6139 31.5 47.9462 31.5 47.25C31.5 46.5538 31.7766 45.8861 32.2688 45.3938C32.7611 44.9016 33.4288 44.625 34.125 44.625Z" fill="black"/>
</svg>
