<svg width="285" height="83" viewBox="0 0 285 83" fill="none" xmlns="http://www.w3.org/2000/svg">
<g clip-path="url(#clip0_242_474)">
<path d="M20.4304 2.43994L42.4979 56.2483H43.371L65.4603 2.43994H85.8907V81.7801H69.8476V29.8234H69.1928L48.4349 81.4533H37.4558L16.6979 29.6056H16.0431V81.7801H0V2.43994H20.4304Z" fill="white"/>
<path d="M110.272 79.1658C105.885 76.617 102.501 73.0007 100.122 68.3387C97.743 63.6768 96.5424 58.296 96.5424 52.1962C96.5424 46.0965 97.7211 40.7156 100.078 36.0755C102.436 31.4353 105.819 27.8408 110.228 25.3138C114.637 22.765 119.81 21.5015 125.747 21.5015C131.685 21.5015 136.858 22.765 141.289 25.3138C145.72 27.8626 149.125 31.4353 151.504 36.0755C153.883 40.7156 155.083 46.0965 155.083 52.1962C155.083 58.296 153.905 63.6768 151.504 68.3387C149.125 73.0007 145.72 76.5952 141.289 79.1658C136.858 81.7146 131.685 82.9999 125.747 82.9999C119.81 82.9999 114.659 81.7146 110.272 79.1658ZM132.776 68.0773C134.675 66.5306 136.115 64.3739 137.054 61.629C138.014 58.8841 138.473 55.7471 138.473 52.1962C138.473 48.6453 137.993 45.5083 137.054 42.7416C136.094 39.975 134.675 37.8183 132.776 36.2498C130.877 34.6813 128.563 33.897 125.857 33.897C123.15 33.897 120.771 34.6813 118.85 36.2498C116.929 37.8183 115.467 39.9967 114.485 42.7416C113.502 45.5083 113 48.6453 113 52.1962C113 55.7471 113.502 58.8406 114.485 61.5855C115.467 64.3521 116.929 66.5088 118.85 68.0555C120.771 69.6023 123.106 70.3865 125.857 70.3865C128.607 70.3865 130.877 69.6023 132.776 68.0555V68.0773Z" fill="white"/>
<path d="M176.605 79.1658C172.218 76.617 168.835 73.0007 166.456 68.3387C164.076 63.6768 162.898 58.296 162.898 52.1962C162.898 46.0965 164.076 40.7156 166.434 36.0755C168.791 31.4353 172.174 27.8408 176.583 25.3138C180.993 22.765 186.166 21.5015 192.103 21.5015C198.04 21.5015 203.213 22.765 207.644 25.3138C212.075 27.8626 215.48 31.4353 217.859 36.0755C220.238 40.7156 221.439 46.0965 221.439 52.1962C221.439 58.296 220.238 63.6768 217.859 68.3387C215.48 73.0007 212.075 76.5952 207.644 79.1658C203.213 81.7146 198.04 82.9999 192.103 82.9999C186.166 82.9999 181.014 81.7146 176.627 79.1658H176.605ZM199.109 68.0773C201.008 66.5306 202.449 64.3739 203.387 61.629C204.348 58.8841 204.806 55.7471 204.806 52.1962C204.806 48.6453 204.326 45.5083 203.387 42.7416C202.427 39.975 201.008 37.8183 199.109 36.2498C197.21 34.6813 194.897 33.897 192.19 33.897C189.483 33.897 187.104 34.6813 185.183 36.2498C183.263 37.8183 181.8 39.9967 180.818 42.7416C179.836 45.5083 179.334 48.6453 179.334 52.1962C179.334 55.7471 179.836 58.8406 180.818 61.5855C181.8 64.3303 183.263 66.5088 185.183 68.0555C187.104 69.6023 189.44 70.3865 192.19 70.3865C194.94 70.3865 197.21 69.6023 199.109 68.0555V68.0773Z" fill="white"/>
<path d="M264.024 81.7802H245.798L224.931 22.2642H242.066L254.594 65.0059H255.249L267.778 22.2642H285.022L264.046 81.7802H264.024Z" fill="white"/>
<path d="M232.571 14.9879C236.718 14.9879 240.079 11.6328 240.079 7.49396C240.079 3.35516 236.718 0 232.571 0C228.424 0 225.062 3.35516 225.062 7.49396C225.062 11.6328 228.424 14.9879 232.571 14.9879Z" fill="white"/>
<path d="M276.727 14.9879C280.874 14.9879 284.236 11.6328 284.236 7.49396C284.236 3.35516 280.874 0 276.727 0C272.581 0 269.219 3.35516 269.219 7.49396C269.219 11.6328 272.581 14.9879 276.727 14.9879Z" fill="white"/>
</g>
<defs>
<clipPath id="clip0_242_474">
<rect width="285" height="83" fill="white"/>
</clipPath>
</defs>
</svg>
