<svg width="24" height="24" viewBox="0 0 24 24" fill="none" xmlns="http://www.w3.org/2000/svg">
<path fill-rule="evenodd" clip-rule="evenodd" d="M15.085 4.853C15.2039 4.40837 15.4431 4.00515 15.7764 3.68775C16.1097 3.37035 16.5241 3.15107 16.974 3.05405C17.4239 2.95704 17.8918 2.98605 18.3263 3.13789C18.7608 3.28974 19.1449 3.55852 19.4365 3.91466C19.728 4.2708 19.9156 4.70048 19.9786 5.15638C20.0416 5.61229 19.9776 6.07675 19.7937 6.49862C19.6097 6.92049 19.3128 7.28341 18.9359 7.54743C18.5589 7.81145 18.1163 7.96632 17.657 7.995C17.8846 8.63894 18.0006 9.31702 18 10V16H19C19.55 16 20 16.45 20 17C20 17.55 19.55 18 19 18H15V19C15 19.7956 14.6839 20.5587 14.1213 21.1213C13.5587 21.6839 12.7956 22 12 22C11.2044 22 10.4413 21.6839 9.87868 21.1213C9.31607 20.5587 9 19.7956 9 19V18H5C4.45 18 4 17.55 4 17C4 16.45 4.45 16 5 16H6V10C5.99978 8.58192 6.50184 7.20959 7.41713 6.12645C8.33241 5.0433 9.60175 4.31935 11 4.083V3C11 2.73478 11.1054 2.48043 11.2929 2.29289C11.4804 2.10536 11.7348 2 12 2C12.2652 2 12.5196 2.10536 12.7071 2.29289C12.8946 2.48043 13 2.73478 13 3V4.083C13.7369 4.20758 14.444 4.46872 15.085 4.853ZM12 20C12.2652 20 12.5196 19.8946 12.7071 19.7071C12.8946 19.5196 13 19.2652 13 19V18H11V19C11 19.2652 11.1054 19.5196 11.2929 19.7071C11.4804 19.8946 11.7348 20 12 20ZM8 16H16V10C16 8.93913 15.5786 7.92172 14.8284 7.17157C14.0783 6.42143 13.0609 6 12 6C10.9391 6 9.92172 6.42143 9.17157 7.17157C8.42143 7.92172 8 8.93913 8 10V16Z" fill="black"/>
</svg>
