<svg width="24" height="24" viewBox="0 0 24 24" fill="none" xmlns="http://www.w3.org/2000/svg">
<g clip-path="url(#clip0_468_4539)">
<path fill-rule="evenodd" clip-rule="evenodd" d="M0 8.4C0 7.76348 0.252856 7.15303 0.702944 6.70294C1.15303 6.25286 1.76348 6 2.4 6H21.6C22.2365 6 22.847 6.25286 23.2971 6.70294C23.7471 7.15303 24 7.76348 24 8.4V21.6C24 22.2365 23.7471 22.847 23.2971 23.2971C22.847 23.7471 22.2365 24 21.6 24H2.4C1.76348 24 1.15303 23.7471 0.702944 23.2971C0.252856 22.847 0 22.2365 0 21.6V8.4ZM21.6 8.4H2.4V21.6H21.6V8.4Z" fill="black"/>
<path fill-rule="evenodd" clip-rule="evenodd" d="M6.90001 11.3996C6.90001 11.1609 6.99483 10.932 7.16361 10.7632C7.33239 10.5944 7.56131 10.4996 7.80001 10.4996H16.2C16.4387 10.4996 16.6676 10.5944 16.8364 10.7632C17.0052 10.932 17.1 11.1609 17.1 11.3996C17.1 11.6383 17.0052 11.8672 16.8364 12.036C16.6676 12.2048 16.4387 12.2996 16.2 12.2996H7.80001C7.56131 12.2996 7.33239 12.2048 7.16361 12.036C6.99483 11.8672 6.90001 11.6383 6.90001 11.3996ZM5.70001 14.9996C5.70001 14.7609 5.79483 14.532 5.96361 14.3632C6.13239 14.1944 6.36131 14.0996 6.60001 14.0996H17.4C17.6387 14.0996 17.8676 14.1944 18.0364 14.3632C18.2052 14.532 18.3 14.7609 18.3 14.9996C18.3 15.2383 18.2052 15.4672 18.0364 15.636C17.8676 15.8048 17.6387 15.8996 17.4 15.8996H6.60001C6.36131 15.8996 6.13239 15.8048 5.96361 15.636C5.79483 15.4672 5.70001 15.2383 5.70001 14.9996ZM6.90001 18.5996C6.90001 18.3609 6.99483 18.132 7.16361 17.9632C7.33239 17.7944 7.56131 17.6996 7.80001 17.6996H16.2C16.4387 17.6996 16.6676 17.7944 16.8364 17.9632C17.0052 18.132 17.1 18.3609 17.1 18.5996C17.1 18.8383 17.0052 19.0672 16.8364 19.236C16.6676 19.4048 16.4387 19.4996 16.2 19.4996H7.80001C7.56131 19.4996 7.33239 19.4048 7.16361 19.236C6.99483 19.0672 6.90001 18.8383 6.90001 18.5996ZM13.6968 3.39319C13.2467 2.94326 12.6364 2.6905 12 2.6905C11.3636 2.6905 10.7533 2.94326 10.3032 3.39319L5.64841 8.04919C5.53691 8.1606 5.40457 8.24897 5.25893 8.30923C5.11329 8.3695 4.9572 8.40049 4.79958 8.40043C4.64196 8.40038 4.4859 8.36928 4.3403 8.30891C4.1947 8.24854 4.06242 8.16008 3.95101 8.04859C3.83959 7.9371 3.75123 7.80475 3.69096 7.65911C3.6307 7.51347 3.59971 7.35738 3.59976 7.19977C3.59982 7.04215 3.63092 6.88609 3.69129 6.74049C3.75166 6.59489 3.84011 6.4626 3.95161 6.35119L8.60641 1.69639C9.50654 0.79653 10.7272 0.291016 12 0.291016C13.2728 0.291016 14.4935 0.79653 15.3936 1.69639L20.0496 6.35119C20.2746 6.57636 20.401 6.88169 20.4008 7.20002C20.4007 7.51834 20.2742 7.82358 20.049 8.04859C19.8238 8.2736 19.5185 8.39995 19.2002 8.39983C18.8819 8.39972 18.5766 8.27316 18.3516 8.04799L13.6968 3.39319Z" fill="black"/>
</g>
<defs>
<clipPath id="clip0_468_4539">
<rect width="24" height="24" fill="white"/>
</clipPath>
</defs>
</svg>
