<svg width="103" height="30" viewBox="0 0 103 30" fill="none" xmlns="http://www.w3.org/2000/svg">
<g clip-path="url(#clip0_242_591)">
<path d="M7.3657 0.881897L15.3216 20.3307H15.6364L23.6002 0.881897H30.9659V29.5591H25.1819V10.7874H24.9458L17.4621 29.4488H13.5038L6.02005 10.7008H5.78397V29.5591H0V0.881897H7.3657Z" fill="#E9B950"/>
<path d="M39.7559 28.6142C38.1742 27.6929 36.9544 26.3858 36.0967 24.7008C35.2389 23.0158 34.8061 21.0709 34.8061 18.8662C34.8061 16.6614 35.231 14.7165 36.0809 13.0394C36.9308 11.3622 38.1506 10.063 39.7402 9.14962C41.3298 8.22836 43.1948 7.77167 45.3353 7.77167C47.4757 7.77167 49.3408 8.22836 50.9382 9.14962C52.5357 10.0709 53.7633 11.3622 54.6211 13.0394C55.4789 14.7165 55.9117 16.6614 55.9117 18.8662C55.9117 21.0709 55.4867 23.0158 54.6211 24.7008C53.7633 26.3858 52.5357 27.6851 50.9382 28.6142C49.3408 29.5354 47.4757 30 45.3353 30C43.1948 30 41.3376 29.5354 39.7559 28.6142ZM47.8692 24.6063C48.5538 24.0473 49.0732 23.2677 49.4116 22.2756C49.7578 21.2835 49.9231 20.1496 49.9231 18.8662C49.9231 17.5827 49.75 16.4488 49.4116 15.4488C49.0653 14.4488 48.5538 13.6693 47.8692 13.1024C47.1846 12.5354 46.3504 12.252 45.3746 12.252C44.3988 12.252 43.5411 12.5354 42.8486 13.1024C42.1561 13.6693 41.6288 14.4567 41.2747 15.4488C40.9206 16.4488 40.7396 17.5827 40.7396 18.8662C40.7396 20.1496 40.9206 21.2677 41.2747 22.2599C41.6288 23.2599 42.1561 24.0394 42.8486 24.5984C43.5411 25.1575 44.3831 25.441 45.3746 25.441C46.3662 25.441 47.1846 25.1575 47.8692 24.5984V24.6063Z" fill="#E9B950"/>
<path d="M63.6707 28.6142C62.089 27.6929 60.8693 26.3858 60.0115 24.7008C59.1537 23.0158 58.7288 21.0709 58.7288 18.8662C58.7288 16.6614 59.1537 14.7165 60.0036 13.0394C60.8535 11.3622 62.0733 10.063 63.6629 9.14962C65.2525 8.22836 67.1175 7.77167 69.258 7.77167C71.3984 7.77167 73.2635 8.22836 74.8609 9.14962C76.4584 10.0709 77.686 11.3622 78.5438 13.0394C79.4016 14.7165 79.8344 16.6614 79.8344 18.8662C79.8344 21.0709 79.4016 23.0158 78.5438 24.7008C77.686 26.3858 76.4584 27.6851 74.8609 28.6142C73.2635 29.5354 71.3984 30 69.258 30C67.1175 30 65.2603 29.5354 63.6786 28.6142H63.6707ZM71.784 24.6063C72.4687 24.0473 72.988 23.2677 73.3264 22.2756C73.6727 21.2835 73.8379 20.1496 73.8379 18.8662C73.8379 17.5827 73.6648 16.4488 73.3264 15.4488C72.9802 14.4488 72.4687 13.6693 71.784 13.1024C71.0994 12.5354 70.2653 12.252 69.2895 12.252C68.3137 12.252 67.4559 12.5354 66.7634 13.1024C66.0709 13.6693 65.5436 14.4567 65.1895 15.4488C64.8354 16.441 64.6544 17.5827 64.6544 18.8662C64.6544 20.1496 64.8354 21.2677 65.1895 22.2599C65.5436 23.252 66.0709 24.0394 66.7634 24.5984C67.4559 25.1575 68.2979 25.441 69.2895 25.441C70.281 25.441 71.0994 25.1575 71.784 24.5984V24.6063Z" fill="#E9B950"/>
<path d="M95.1874 29.5591H88.6165L81.0934 8.04724H87.2708L91.7878 23.4961H92.0239L96.5409 8.04724H102.758L95.1953 29.5591H95.1874Z" fill="#E9B950"/>
<path d="M83.8477 5.41732C85.3428 5.41732 86.5548 4.20461 86.5548 2.70866C86.5548 1.21271 85.3428 0 83.8477 0C82.3527 0 81.1407 1.21271 81.1407 2.70866C81.1407 4.20461 82.3527 5.41732 83.8477 5.41732Z" fill="#E9B950"/>
<path d="M99.7674 5.41732C101.262 5.41732 102.474 4.20461 102.474 2.70866C102.474 1.21271 101.262 0 99.7674 0C98.2723 0 97.0603 1.21271 97.0603 2.70866C97.0603 4.20461 98.2723 5.41732 99.7674 5.41732Z" fill="#E9B950"/>
</g>
<defs>
<clipPath id="clip0_242_591">
<rect width="102.75" height="30" fill="white"/>
</clipPath>
</defs>
</svg>
