<svg width="48" height="48" viewBox="0 0 48 48" fill="none" xmlns="http://www.w3.org/2000/svg">
<path d="M34 5.99963C34.5253 5.47434 35.1489 5.05766 35.8352 4.77338C36.5215 4.48909 37.2571 4.34277 38 4.34277C38.7429 4.34277 39.4785 4.48909 40.1648 4.77338C40.8511 5.05766 41.4747 5.47434 42 5.99963C42.5253 6.52492 42.942 7.14852 43.2263 7.83484C43.5105 8.52116 43.6569 9.25676 43.6569 9.99963C43.6569 10.7425 43.5105 11.4781 43.2263 12.1644C42.942 12.8507 42.5253 13.4743 42 13.9996L15 40.9996L4 43.9996L7 32.9996L34 5.99963Z" stroke="#1E1E1E" stroke-width="4" stroke-linecap="round" stroke-linejoin="round"/>
</svg>
