<svg width="30" height="30" viewBox="0 0 30 30" fill="none" xmlns="http://www.w3.org/2000/svg">
<path d="M15 3.75C22.25 3.75 28.1263 8.33 28.1263 13.9813C28.1263 19.6313 22.25 24.2113 15.0013 24.2113C14.2795 24.21 13.5586 24.1641 12.8425 24.0738L7.3325 27.6775C6.70625 28.0088 6.485 27.9725 6.7425 27.1613L7.8575 22.5638C4.2575 20.7388 1.87625 17.5763 1.87625 13.9813C1.87625 8.33125 7.75125 3.75 15.0013 3.75M22.3863 13.825L24.2238 12.045C24.3298 11.9349 24.3889 11.7879 24.3887 11.6351C24.3886 11.4822 24.3291 11.3354 24.2228 11.2255C24.1165 11.1157 23.9717 11.0513 23.8189 11.0461C23.6661 11.0409 23.5173 11.0952 23.4038 11.1975L20.9938 13.53V11.6025C20.9938 11.446 20.9316 11.296 20.8209 11.1853C20.7103 11.0747 20.5602 11.0125 20.4038 11.0125C20.2473 11.0125 20.0972 11.0747 19.9866 11.1853C19.8759 11.296 19.8138 11.446 19.8138 11.6025V14.7987C19.793 14.8901 19.793 14.9849 19.8138 15.0763V16.875C19.8138 17.0315 19.8759 17.1815 19.9866 17.2922C20.0972 17.4028 20.2473 17.465 20.4038 17.465C20.5602 17.465 20.7103 17.4028 20.8209 17.2922C20.9316 17.1815 20.9938 17.0315 20.9938 16.875V15.1713L21.5275 14.655L23.3125 17.1962C23.3571 17.2597 23.4137 17.3137 23.4792 17.3553C23.5446 17.3969 23.6176 17.4251 23.694 17.4385C23.7704 17.4518 23.8486 17.45 23.9243 17.4331C24 17.4162 24.0716 17.3846 24.135 17.34C24.1984 17.2954 24.2525 17.2388 24.2941 17.1734C24.3356 17.1079 24.3639 17.0349 24.3772 16.9585C24.3906 16.8821 24.3887 16.8039 24.3718 16.7282C24.355 16.6525 24.3233 16.5809 24.2788 16.5175L22.3863 13.825ZM18.6888 16.23H16.8638V11.6213C16.8568 11.4696 16.7916 11.3265 16.6819 11.2217C16.5721 11.1169 16.4262 11.0584 16.2744 11.0584C16.1226 11.0584 15.9767 11.1169 15.8669 11.2217C15.7571 11.3265 15.692 11.4696 15.685 11.6213V16.82C15.685 17.145 15.9475 17.41 16.2738 17.41H18.6888C18.8452 17.41 18.9953 17.3478 19.1059 17.2372C19.2166 17.1265 19.2788 16.9765 19.2788 16.82C19.2788 16.6635 19.2166 16.5135 19.1059 16.4028C18.9953 16.2922 18.8452 16.23 18.6888 16.23ZM11.3675 14.8662L12.2375 12.7313L13.035 14.865L11.3675 14.8662ZM14.5212 15.475L14.5238 15.455C14.5233 15.3064 14.4666 15.1635 14.365 15.055L13.0575 11.555C13.0027 11.3882 12.8983 11.2421 12.7582 11.1362C12.6182 11.0304 12.4492 10.9698 12.2738 10.9625C12.0972 10.9624 11.9248 11.0157 11.7791 11.1155C11.6334 11.2152 11.5213 11.3566 11.4575 11.5212L9.38 16.615C9.32083 16.7599 9.32162 16.9223 9.38222 17.0666C9.44282 17.2109 9.55825 17.3252 9.70313 17.3844C9.848 17.4436 10.0104 17.4428 10.1547 17.3822C10.299 17.3216 10.4133 17.2061 10.4725 17.0613L10.8875 16.045H13.475L13.8475 17.045C13.8729 17.1197 13.9131 17.1886 13.9656 17.2476C14.0181 17.3065 14.0819 17.3543 14.1532 17.3882C14.2246 17.422 14.302 17.4412 14.3809 17.4446C14.4597 17.4479 14.5385 17.4355 14.6124 17.4078C14.6864 17.3802 14.7541 17.3381 14.8114 17.2838C14.8688 17.2296 14.9147 17.1644 14.9464 17.0921C14.9781 17.0198 14.995 16.9418 14.9961 16.8629C14.9971 16.784 14.9823 16.7056 14.9525 16.6325L14.5212 15.475ZM10.3675 11.6275C10.3678 11.55 10.3528 11.4733 10.3234 11.4016C10.2939 11.33 10.2506 11.2648 10.1959 11.21C10.1412 11.1552 10.0761 11.1117 10.0045 11.0821C9.93295 11.0525 9.85622 11.0373 9.77875 11.0375H5.7225C5.56602 11.0375 5.41595 11.0997 5.30531 11.2103C5.19466 11.321 5.1325 11.471 5.1325 11.6275C5.1325 11.784 5.19466 11.934 5.30531 12.0447C5.41595 12.1553 5.56602 12.2175 5.7225 12.2175H7.1725V16.8875C7.1725 17.044 7.23466 17.194 7.34531 17.3047C7.45595 17.4153 7.60602 17.4775 7.7625 17.4775C7.91898 17.4775 8.06905 17.4153 8.17969 17.3047C8.29034 17.194 8.3525 17.044 8.3525 16.8875V12.2175H9.7775C9.85507 12.2178 9.93194 12.2028 10.0037 12.1733C10.0754 12.1437 10.1406 12.1003 10.1954 12.0454C10.2503 11.9906 10.2937 11.9254 10.3233 11.8537C10.3528 11.7819 10.3678 11.7051 10.3675 11.6275Z" fill="#F8FF31"/>
</svg>
