<svg width="63" height="63" viewBox="0 0 63 63" fill="none" xmlns="http://www.w3.org/2000/svg">
<g clip-path="url(#clip0_205_2774)">
<path d="M58.0781 0.5H4.92188C2.20237 0.5 0 2.705 0 5.42188V58.5781C0 61.2976 2.205 63.5 4.92188 63.5H58.0781C60.7976 63.5 63 61.295 63 58.5781V5.42188C63 2.70237 60.795 0.5 58.0781 0.5ZM31.5 49.7188C29.946 49.7188 28.4305 49.6137 26.9535 49.4037C25.4782 50.4432 16.9444 56.4361 16.1385 56.549C16.1385 56.549 15.8104 56.6776 15.5295 56.5122C15.2486 56.3469 15.2985 55.9111 15.2985 55.9111C15.3825 55.3336 17.5114 47.9889 17.9025 46.637C10.6969 43.067 5.90625 36.7434 5.90625 29.5404C5.90625 18.3946 17.3644 9.35938 31.5 9.35938C45.6356 9.35938 57.0938 18.3946 57.0938 29.5404C57.0938 40.6861 45.6356 49.7188 31.5 49.7188ZM21.1313 26.4009H18.8265V35.1736C18.8265 35.9506 18.165 36.5833 17.3486 36.5833C16.5323 36.5833 15.8734 35.9533 15.8734 35.1736V26.4009H13.5686C13.2038 26.3739 12.8627 26.21 12.6137 25.9419C12.3647 25.6739 12.2264 25.3216 12.2264 24.9558C12.2264 24.59 12.3647 24.2377 12.6137 23.9697C12.8627 23.7016 13.2038 23.5377 13.5686 23.5107H21.1286C21.4935 23.5377 21.8346 23.7016 22.0835 23.9697C22.3325 24.2377 22.4709 24.59 22.4709 24.9558C22.4709 25.3216 22.3325 25.6739 22.0835 25.9419C21.8346 26.21 21.4935 26.3739 21.1286 26.4009M49.9695 34.163C50.0871 34.3175 50.173 34.4938 50.2221 34.6817C50.2712 34.8696 50.2826 35.0653 50.2556 35.2576C50.2285 35.4494 50.1638 35.6339 50.0651 35.8006C49.9665 35.9673 49.8358 36.1128 49.6808 36.2289C49.4255 36.4227 49.114 36.5278 48.7935 36.5281C48.5644 36.5289 48.3383 36.4762 48.1332 36.3741C47.9281 36.272 47.7497 36.1234 47.6123 35.9401L44.1499 31.3542L43.638 31.8661V35.087C43.6373 35.4783 43.4817 35.8534 43.2053 36.1303C42.9289 36.4073 42.554 36.5635 42.1628 36.5649C41.7708 36.5649 41.3949 36.4092 41.1177 36.132C40.8406 35.8549 40.6849 35.479 40.6849 35.087V24.986C40.7009 24.6052 40.8635 24.2453 41.1387 23.9815C41.4138 23.7177 41.7803 23.5704 42.1614 23.5704C42.5426 23.5704 42.909 23.7177 43.1842 23.9815C43.4594 24.2453 43.6219 24.6052 43.638 24.986V28.1623L47.7593 24.041C47.977 23.8272 48.2705 23.7083 48.5756 23.7103C48.9431 23.7103 49.3159 23.8704 49.5941 24.1486C49.8465 24.3977 50.0003 24.7296 50.0273 25.0831C50.0405 25.2477 50.0183 25.4133 49.9622 25.5686C49.906 25.7239 49.8172 25.8654 49.7018 25.9835L46.3365 29.3461L49.9695 34.163ZM28.0507 24.9702C27.8014 24.2615 27.0454 23.5317 26.082 23.5107C25.1213 23.5317 24.3653 24.2615 24.1159 24.9676L20.5853 34.2628C20.1364 35.654 20.5275 36.1737 20.9344 36.3628C21.2297 36.4935 21.5486 36.5623 21.8715 36.5649C22.4884 36.5649 22.9583 36.3155 23.1 35.9139L23.8324 33.9976H28.3342L29.0666 35.9139C29.2084 36.3155 29.6783 36.5649 30.2951 36.5649C30.6182 36.5614 30.9372 36.4917 31.2323 36.3601C31.6391 36.1738 32.0303 35.6566 31.5814 34.2601L28.0507 24.9702ZM24.6094 31.3831L26.0846 27.1936L27.5573 31.3831H24.6094ZM40.11 35.0135C40.1004 35.3802 39.9463 35.7283 39.6813 35.9819C39.4163 36.2356 39.0619 36.3744 38.6951 36.368H33.9596C33.5924 36.3751 33.2373 36.2366 32.9717 35.9829C32.7062 35.7291 32.5518 35.3807 32.5421 35.0135V24.986C32.5421 24.1723 33.2194 23.5107 34.0515 23.5107C34.8836 23.5107 35.5583 24.1723 35.5583 24.986V33.6616H38.6951C39.4748 33.6616 40.1126 34.268 40.1126 35.0135" fill="#F7E600"/>
</g>
<defs>
<clipPath id="clip0_205_2774">
<rect width="63" height="63" fill="white"/>
</clipPath>
</defs>
</svg>
